<?xml version='1.0' encoding='utf-8'?>
<mxfile host="app.diagrams.net"><diagram name="ETL IoT Air Quality" id="1"><mxGraphModel dx="1222" dy="794" grid="1" gridSize="10" guides="1" tooltips="1" connect="1" arrows="1" fold="1" page="1" pageScale="1" pageWidth="827" pageHeight="1169" math="0" shadow="0"><root><mxCell id="0" /><mxCell id="1" parent="0" /><mxCell id="2" value="IoT Devices" style="shape=folder" vertex="1" parent="1"><mxGeometry x="40" y="40" width="160" height="60" as="geometry" /></mxCell><mxCell id="3" value="Config.json" style="shape=document" vertex="1" parent="1"><mxGeometry x="40" y="160" width="160" height="60" as="geometry" /></mxCell><mxCell id="4" value="Azure Data Factory" style="shape=cylinder3;fillColor=#dae8fc" vertex="1" parent="1"><mxGeometry x="240" y="40" width="160" height="60" as="geometry" /></mxCell><mxCell id="5" value="Data Lake (Raw)" style="shape=folder;fillColor=#d5e8d4" vertex="1" parent="1"><mxGeometry x="440" y="40" width="160" height="60" as="geometry" /></mxCell><mxCell id="6" value="Validation &amp; Cleaning" style="shape=process;fillColor=#fff2cc" vertex="1" parent="1"><mxGeometry x="640" y="40" width="160" height="60" as="geometry" /></mxCell><mxCell id="7" value="Feature Engineering" style="shape=process;fillColor=#fff2cc" vertex="1" parent="1"><mxGeometry x="840" y="40" width="160" height="60" as="geometry" /></mxCell><mxCell id="8" value="Azure ML" style="shape=hexagon;fillColor=#e1d5e7" vertex="1" parent="1"><mxGeometry x="1040" y="40" width="160" height="60" as="geometry" /></mxCell><mxCell id="9" value="Azure Synapse" style="shape=cloud;fillColor=#f8cecc" vertex="1" parent="1"><mxGeometry x="640" y="160" width="160" height="60" as="geometry" /></mxCell><mxCell id="10" value="Power BI" style="shape=parallelogram;fillColor=#f5f5f5" vertex="1" parent="1"><mxGeometry x="840" y="160" width="160" height="60" as="geometry" /></mxCell><mxCell id="11" edge="1" source="2" target="4" parent="1" style="endArrow=block;"><mxGeometry relative="1" as="geometry" /></mxCell><mxCell id="12" edge="1" source="4" target="5" parent="1" style="endArrow=block;"><mxGeometry relative="1" as="geometry" /></mxCell><mxCell id="13" edge="1" source="3" target="6" parent="1" style="endArrow=block;"><mxGeometry relative="1" as="geometry" /></mxCell><mxCell id="14" edge="1" source="5" target="6" parent="1" style="endArrow=block;"><mxGeometry relative="1" as="geometry" /></mxCell><mxCell id="15" edge="1" source="6" target="7" parent="1" style="endArrow=block;"><mxGeometry relative="1" as="geometry" /></mxCell><mxCell id="16" edge="1" source="7" target="8" parent="1" style="endArrow=block;"><mxGeometry relative="1" as="geometry" /></mxCell><mxCell id="17" edge="1" source="8" target="9" parent="1" style="endArrow=block;"><mxGeometry relative="1" as="geometry" /></mxCell><mxCell id="18" edge="1" source="6" target="9" parent="1" style="endArrow=block;"><mxGeometry relative="1" as="geometry" /></mxCell><mxCell id="19" edge="1" source="9" target="10" parent="1" style="endArrow=block;"><mxGeometry relative="1" as="geometry" /></mxCell></root></mxGraphModel></diagram></mxfile>